<svg width="33" height="33" viewBox="0 0 33 33" fill="none" xmlns="http://www.w3.org/2000/svg">
<path d="M17.7384 16.9589L26.0384 8.67145C26.1979 8.47715 26.2794 8.23049 26.2671 7.97943C26.2547 7.72838 26.1495 7.49089 25.9717 7.31316C25.794 7.13542 25.5565 7.03015 25.3054 7.01782C25.0544 7.00549 24.8077 7.08698 24.6134 7.24645L16.3259 15.5464L8.03844 7.24645C7.84414 7.08698 7.59748 7.00549 7.34643 7.01782C7.09537 7.03015 6.85788 7.13542 6.68015 7.31316C6.50241 7.49089 6.39714 7.72838 6.38481 7.97943C6.37248 8.23049 6.45397 8.47715 6.61344 8.67145L14.9134 16.9589L6.61344 25.2464C6.42566 25.436 6.32031 25.6921 6.32031 25.9589C6.32031 26.2258 6.42566 26.4819 6.61344 26.6714C6.80458 26.8563 7.06006 26.9596 7.32594 26.9596C7.59182 26.9596 7.8473 26.8563 8.03844 26.6714L16.3259 18.3714L24.6134 26.6714C24.8046 26.8563 25.0601 26.9596 25.3259 26.9596C25.5918 26.9596 25.8473 26.8563 26.0384 26.6714C26.2262 26.4819 26.3316 26.2258 26.3316 25.9589C26.3316 25.6921 26.2262 25.436 26.0384 25.2464L17.7384 16.9589Z" fill="#0B3190"/>
</svg>
