<svg width="22" height="13" viewBox="0 0 22 13" fill="none" xmlns="http://www.w3.org/2000/svg">
<path d="M21.9252 1.2502C21.8487 1.0682 21.72 0.912915 21.5554 0.803916C21.3908 0.694918 21.1976 0.637083 21.0002 0.6377H1.0002C0.802771 0.637083 0.609581 0.694918 0.444971 0.803916C0.280361 0.912915 0.151697 1.0682 0.0751958 1.2502C0.00315034 1.43491 -0.0151266 1.63625 0.0224791 1.83091C0.0600848 2.02557 0.152036 2.20561 0.287696 2.3502L10.2877 12.3502C10.4788 12.535 10.7343 12.6383 11.0002 12.6383C11.2661 12.6383 11.5216 12.535 11.7127 12.3502L21.7127 2.3502C21.8484 2.20561 21.9403 2.02557 21.9779 1.83091C22.0155 1.63625 21.9972 1.43491 21.9252 1.2502V1.2502Z" fill="#0B3190"/>
</svg>
