<svg width="33" height="33" viewBox="0 0 33 33" fill="none" xmlns="http://www.w3.org/2000/svg">
<path d="M20.6905 10.3484L10.278 20.9359C9.93326 21.3163 9.74805 21.8147 9.76069 22.328C9.77332 22.8412 9.98284 23.3299 10.3459 23.693C10.7089 24.056 11.1976 24.2655 11.7109 24.2782C12.2241 24.2908 12.7225 24.1056 13.103 23.7609L25.5155 11.1734C26.2049 10.4125 26.5754 9.41557 26.5501 8.38909C26.5248 7.36262 26.1058 6.38517 25.3797 5.65912C24.6537 4.93307 23.6762 4.51404 22.6497 4.48876C21.6233 4.46349 20.6264 4.83392 19.8655 5.52336L7.45298 18.1109C6.32913 19.2347 5.69775 20.759 5.69775 22.3484C5.69775 23.9377 6.32913 25.462 7.45298 26.5859C8.57684 27.7097 10.1011 28.3411 11.6905 28.3411C13.2799 28.3411 14.8041 27.7097 15.928 26.5859L26.1905 16.3484" stroke="#344054" stroke-width="2" stroke-linecap="round" stroke-linejoin="round"/>
</svg>
