<svg width="32" height="33" viewBox="0 0 32 33" fill="none" xmlns="http://www.w3.org/2000/svg">
<path d="M7.5 6.95899C7.20333 6.95899 6.91332 7.04696 6.66665 7.21178C6.41997 7.3766 6.22771 7.61087 6.11418 7.88496C6.00065 8.15905 5.97094 8.46065 6.02882 8.75162C6.0867 9.04259 6.22956 9.30987 6.43934 9.51965C6.64912 9.72942 6.91639 9.87229 7.20737 9.93016C7.49834 9.98804 7.79994 9.95834 8.07403 9.8448C8.34812 9.73127 8.58238 9.53901 8.74721 9.29234C8.91203 9.04567 9 8.75566 9 8.45899C9 8.06116 8.84197 7.67963 8.56066 7.39832C8.27936 7.11702 7.89783 6.95899 7.5 6.95899V6.95899ZM16 6.95899C15.7033 6.95899 15.4133 7.04696 15.1666 7.21178C14.92 7.3766 14.7277 7.61087 14.6142 7.88496C14.5007 8.15905 14.4709 8.46065 14.5288 8.75162C14.5867 9.04259 14.7296 9.30987 14.9393 9.51965C15.1491 9.72942 15.4164 9.87229 15.7074 9.93016C15.9983 9.98804 16.2999 9.95834 16.574 9.8448C16.8481 9.73127 17.0824 9.53901 17.2472 9.29234C17.412 9.04567 17.5 8.75566 17.5 8.45899C17.5 8.06116 17.342 7.67963 17.0607 7.39832C16.7794 7.11702 16.3978 6.95899 16 6.95899ZM24.5 9.95899C24.7967 9.95899 25.0867 9.87101 25.3334 9.70619C25.58 9.54137 25.7723 9.3071 25.8858 9.03301C25.9993 8.75892 26.0291 8.45732 25.9712 8.16635C25.9133 7.87538 25.7704 7.6081 25.5607 7.39832C25.3509 7.18855 25.0836 7.04568 24.7926 6.98781C24.5017 6.92993 24.2001 6.95963 23.926 7.07317C23.6519 7.1867 23.4176 7.37896 23.2528 7.62563C23.088 7.8723 23 8.16231 23 8.45899C23 8.85681 23.158 9.23834 23.4393 9.51965C23.7206 9.80095 24.1022 9.95899 24.5 9.95899ZM7.5 23.959C7.20333 23.959 6.91332 24.047 6.66665 24.2118C6.41997 24.3766 6.22771 24.6109 6.11418 24.885C6.00065 25.159 5.97094 25.4606 6.02882 25.7516C6.0867 26.0426 6.22956 26.3099 6.43934 26.5196C6.64912 26.7294 6.91639 26.8723 7.20737 26.9302C7.49834 26.988 7.79994 26.9583 8.07403 26.8448C8.34812 26.7313 8.58238 26.539 8.74721 26.2923C8.91203 26.0457 9 25.7557 9 25.459C9 25.0612 8.84197 24.6796 8.56066 24.3983C8.27936 24.117 7.89783 23.959 7.5 23.959V23.959ZM16 23.959C15.7033 23.959 15.4133 24.047 15.1666 24.2118C14.92 24.3766 14.7277 24.6109 14.6142 24.885C14.5007 25.159 14.4709 25.4606 14.5288 25.7516C14.5867 26.0426 14.7296 26.3099 14.9393 26.5196C15.1491 26.7294 15.4164 26.8723 15.7074 26.9302C15.9983 26.988 16.2999 26.9583 16.574 26.8448C16.8481 26.7313 17.0824 26.539 17.2472 26.2923C17.412 26.0457 17.5 25.7557 17.5 25.459C17.5 25.0612 17.342 24.6796 17.0607 24.3983C16.7794 24.117 16.3978 23.959 16 23.959ZM24.5 23.959C24.2033 23.959 23.9133 24.047 23.6666 24.2118C23.42 24.3766 23.2277 24.6109 23.1142 24.885C23.0007 25.159 22.9709 25.4606 23.0288 25.7516C23.0867 26.0426 23.2296 26.3099 23.4393 26.5196C23.6491 26.7294 23.9164 26.8723 24.2074 26.9302C24.4983 26.988 24.7999 26.9583 25.074 26.8448C25.3481 26.7313 25.5824 26.539 25.7472 26.2923C25.912 26.0457 26 25.7557 26 25.459C26 25.0612 25.842 24.6796 25.5607 24.3983C25.2794 24.117 24.8978 23.959 24.5 23.959ZM7.5 15.459C7.20333 15.459 6.91332 15.547 6.66665 15.7118C6.41997 15.8766 6.22771 16.1109 6.11418 16.385C6.00065 16.659 5.97094 16.9606 6.02882 17.2516C6.0867 17.5426 6.22956 17.8099 6.43934 18.0196C6.64912 18.2294 6.91639 18.3723 7.20737 18.4302C7.49834 18.488 7.79994 18.4583 8.07403 18.3448C8.34812 18.2313 8.58238 18.039 8.74721 17.7923C8.91203 17.5457 9 17.2557 9 16.959C9 16.5612 8.84197 16.1796 8.56066 15.8983C8.27936 15.617 7.89783 15.459 7.5 15.459V15.459ZM16 15.459C15.7033 15.459 15.4133 15.547 15.1666 15.7118C14.92 15.8766 14.7277 16.1109 14.6142 16.385C14.5007 16.659 14.4709 16.9606 14.5288 17.2516C14.5867 17.5426 14.7296 17.8099 14.9393 18.0196C15.1491 18.2294 15.4164 18.3723 15.7074 18.4302C15.9983 18.488 16.2999 18.4583 16.574 18.3448C16.8481 18.2313 17.0824 18.039 17.2472 17.7923C17.412 17.5457 17.5 17.2557 17.5 16.959C17.5 16.5612 17.342 16.1796 17.0607 15.8983C16.7794 15.617 16.3978 15.459 16 15.459ZM24.5 15.459C24.2033 15.459 23.9133 15.547 23.6666 15.7118C23.42 15.8766 23.2277 16.1109 23.1142 16.385C23.0007 16.659 22.9709 16.9606 23.0288 17.2516C23.0867 17.5426 23.2296 17.8099 23.4393 18.0196C23.6491 18.2294 23.9164 18.3723 24.2074 18.4302C24.4983 18.488 24.7999 18.4583 25.074 18.3448C25.3481 18.2313 25.5824 18.039 25.7472 17.7923C25.912 17.5457 26 17.2557 26 16.959C26 16.5612 25.842 16.1796 25.5607 15.8983C25.2794 15.617 24.8978 15.459 24.5 15.459Z" fill="#0B3190"/>
</svg>
