<svg width="33" height="32" viewBox="0 0 33 32" fill="none" xmlns="http://www.w3.org/2000/svg">
<path d="M16.2617 19C17.0901 19 17.7617 18.3284 17.7617 17.5C17.7617 16.6716 17.0901 16 16.2617 16C15.4333 16 14.7617 16.6716 14.7617 17.5C14.7617 18.3284 15.4333 19 16.2617 19Z" fill="#344054"/>
<path d="M26.2617 10H21.7617V6.5C21.7617 5.04131 21.1823 3.64236 20.1508 2.61091C19.1194 1.57946 17.7204 1 16.2617 1C14.803 1 13.4041 1.57946 12.3726 2.61091C11.3412 3.64236 10.7617 5.04131 10.7617 6.5V10H6.26172C5.73129 10 5.22258 10.2107 4.84751 10.5858C4.47243 10.9609 4.26172 11.4696 4.26172 12V26C4.26172 26.5304 4.47243 27.0391 4.84751 27.4142C5.22258 27.7893 5.73129 28 6.26172 28H26.2617C26.7922 28 27.3009 27.7893 27.6759 27.4142C28.051 27.0391 28.2617 26.5304 28.2617 26V12C28.2617 11.4696 28.051 10.9609 27.6759 10.5858C27.3009 10.2107 26.7922 10 26.2617 10ZM17.2617 20.85V23C17.2617 23.2652 17.1564 23.5196 16.9688 23.7071C16.7813 23.8946 16.5269 24 16.2617 24C15.9965 24 15.7421 23.8946 15.5546 23.7071C15.3671 23.5196 15.2617 23.2652 15.2617 23V20.85C14.4561 20.6098 13.7638 20.0876 13.3115 19.379C12.8591 18.6703 12.677 17.8225 12.7984 16.9906C12.9198 16.1587 13.3365 15.3983 13.9725 14.8484C14.6084 14.2985 15.421 13.9959 16.2617 13.9959C17.1024 13.9959 17.915 14.2985 18.551 14.8484C19.1869 15.3983 19.6037 16.1587 19.7251 16.9906C19.8464 17.8225 19.6643 18.6703 19.212 19.379C18.7597 20.0876 18.0674 20.6098 17.2617 20.85V20.85ZM19.7617 10H12.7617V6.5C12.7617 5.57174 13.1305 4.6815 13.7868 4.02513C14.4432 3.36875 15.3335 3 16.2617 3C17.19 3 18.0802 3.36875 18.7366 4.02513C19.393 4.6815 19.7617 5.57174 19.7617 6.5V10Z" fill="#344054"/>
</svg>
