<svg width="32" height="33" viewBox="0 0 32 33" fill="none" xmlns="http://www.w3.org/2000/svg">
<path d="M4.43741 11.784L14.6999 8.79647H14.7124L26.4374 5.37147C26.736 5.28282 27.0513 5.26606 27.3576 5.32254C27.664 5.37902 27.9526 5.50715 28.1999 5.69647C28.4505 5.88069 28.6537 6.12183 28.7928 6.40002C28.9319 6.6782 29.0029 6.98546 28.9999 7.29647V24.6215C28.9999 25.1497 28.7909 25.6566 28.4185 26.0313C28.0462 26.406 27.5407 26.6182 27.0124 26.6215C26.8183 26.622 26.6249 26.5967 26.4374 26.5465L15.9999 23.4965V24.959C15.9999 25.4894 15.7892 25.9981 15.4141 26.3732C15.0391 26.7483 14.5303 26.959 13.9999 26.959H9.99991C9.46948 26.959 8.96077 26.7483 8.5857 26.3732C8.21062 25.9981 7.99991 25.4894 7.99991 24.959V21.1715L4.43741 20.134C4.02267 20.0103 3.65884 19.7563 3.3999 19.4095C3.14095 19.0627 3.00069 18.6417 2.99991 18.209V13.709C3.00069 13.2762 3.14095 12.8552 3.3999 12.5084C3.65884 12.1617 4.02267 11.9076 4.43741 11.784V11.784ZM9.99991 24.959H13.9999V22.9215L9.99991 21.7465V24.959ZM4.99991 18.209L9.29991 19.459L13.9999 20.834V11.084L4.99991 13.709V18.209Z" fill="#FF5252"/>
</svg>
